<svg width="44" height="45" viewBox="0 0 44 45" fill="none" xmlns="http://www.w3.org/2000/svg">
<g clip-path="url(#clip0_107_18)">
<path d="M24 25.5L27.876 18.1004C28.8744 16.1943 30.8483 15 33 15V15C35.1517 15 37.1256 16.1943 38.124 18.1004L42 25.5" stroke="white" stroke-width="4" stroke-linecap="round"/>
<path d="M26 32L32.0268 15.6417C32.3522 14.7584 33.6066 14.773 33.9113 15.6637L39.5 32H26Z" stroke="white" stroke-width="4" stroke-linecap="round"/>
<path d="M29 32.5V43" stroke="white" stroke-width="4" stroke-linecap="round"/>
<path d="M37 32.5V43" stroke="white" stroke-width="4" stroke-linecap="round"/>
<circle cx="33" cy="6" r="4" stroke="white" stroke-width="3"/>
<path d="M2 25.5L5.87598 18.1004C6.87439 16.1943 8.84828 15 11 15V15C13.1517 15 15.1256 16.1943 16.124 18.1004L20 25.5" stroke="white" stroke-width="4" stroke-linecap="round"/>
<path d="M7 17L7 43" stroke="white" stroke-width="4" stroke-linecap="round"/>
<path d="M15 17L15 43" stroke="white" stroke-width="4" stroke-linecap="round"/>
<circle cx="11" cy="6" r="4" stroke="white" stroke-width="3"/>
<line x1="7" y1="30" x2="15" y2="30" stroke="white" stroke-width="4"/>
</g>
<defs>
<clipPath id="clip0_107_18">
<rect width="44" height="45" fill="white"/>
</clipPath>
</defs>
</svg>
